<svg width="50" height="26" viewBox="0 0 50 26" fill="none" xmlns="http://www.w3.org/2000/svg">
<path d="M9 1H8.42937L8.13907 1.49127L1.63907 12.4913L1.33846 13L1.63907 13.5087L8.13907 24.5087L8.42937 25H9H41H41.5706L41.8609 24.5087L48.3609 13.5087L48.6615 13L48.3609 12.4913L41.8609 1.49127L41.5706 1H41H9Z" fill="#181919" stroke="#3C7EBB" stroke-width="2"/>
<path d="M12.4215 11.2525C12.4729 10.8932 12.5719 10.576 12.7185 10.301C12.8652 10.0223 13.0504 9.7895 13.274 9.6025C13.5014 9.4155 13.7599 9.27433 14.0495 9.179C14.3429 9.08 14.6582 9.0305 14.9955 9.0305C15.3292 9.0305 15.6372 9.07817 15.9195 9.1735C16.2019 9.26883 16.4439 9.4045 16.6455 9.5805C16.8509 9.7565 17.0104 9.96917 17.124 10.2185C17.2377 10.4678 17.2945 10.7447 17.2945 11.049C17.2945 11.2983 17.2615 11.522 17.1955 11.72C17.1332 11.9143 17.0415 12.0848 16.9205 12.2315C16.8032 12.3782 16.6602 12.5028 16.4915 12.6055C16.3229 12.7082 16.134 12.7925 15.925 12.8585C16.4384 12.9905 16.8234 13.2178 17.08 13.5405C17.3404 13.8595 17.4705 14.2592 17.4705 14.7395C17.4705 15.1025 17.4009 15.4288 17.2615 15.7185C17.1259 16.0082 16.9389 16.2557 16.7005 16.461C16.4622 16.6627 16.1835 16.8185 15.8645 16.9285C15.5492 17.0348 15.21 17.088 14.847 17.088C14.429 17.088 14.0715 17.0367 13.7745 16.934C13.4775 16.8277 13.2264 16.6828 13.021 16.4995C12.8157 16.3162 12.647 16.0998 12.515 15.8505C12.383 15.5975 12.2712 15.3243 12.1795 15.031L12.603 14.855C12.713 14.8073 12.8194 14.7945 12.922 14.8165C13.0284 14.8385 13.1054 14.899 13.153 14.998C13.2007 15.1007 13.2594 15.2235 13.329 15.3665C13.4024 15.5095 13.5014 15.647 13.626 15.779C13.7507 15.911 13.9084 16.0228 14.099 16.1145C14.2934 16.2062 14.539 16.252 14.836 16.252C15.111 16.252 15.3512 16.208 15.5565 16.12C15.7655 16.0283 15.9379 15.911 16.0735 15.768C16.2129 15.625 16.3174 15.4655 16.387 15.2895C16.4567 15.1135 16.4915 14.9393 16.4915 14.767C16.4915 14.5543 16.464 14.36 16.409 14.184C16.354 14.008 16.2514 13.8558 16.101 13.7275C15.9507 13.5992 15.7435 13.4983 15.4795 13.425C15.2192 13.3517 14.8837 13.315 14.473 13.315V12.6055C14.8104 12.6018 15.0964 12.5652 15.331 12.4955C15.5694 12.4258 15.7619 12.3305 15.9085 12.2095C16.0589 12.0885 16.167 11.9437 16.233 11.775C16.3027 11.6063 16.3375 11.4193 16.3375 11.214C16.3375 10.9867 16.3009 10.7887 16.2275 10.62C16.1579 10.4513 16.0607 10.312 15.936 10.202C15.8114 10.092 15.6629 10.0095 15.4905 9.9545C15.3219 9.8995 15.1385 9.872 14.9405 9.872C14.7425 9.872 14.5574 9.90133 14.385 9.96C14.2164 10.0187 14.066 10.1012 13.934 10.2075C13.8057 10.3102 13.6975 10.433 13.6095 10.576C13.5215 10.719 13.4592 10.8767 13.4225 11.049C13.3749 11.1773 13.3144 11.2635 13.241 11.3075C13.1714 11.3478 13.0687 11.3588 12.933 11.3405L12.4215 11.2525ZM22.6619 8.8985V13.667H22.9149C22.9882 13.667 23.0487 13.6578 23.0964 13.6395C23.1477 13.6175 23.2009 13.5753 23.2559 13.513L25.0159 11.6265C25.0672 11.5642 25.1204 11.5165 25.1754 11.4835C25.234 11.4468 25.311 11.4285 25.4064 11.4285H26.2919L24.2404 13.612C24.1414 13.7367 24.035 13.8338 23.9214 13.9035C23.9874 13.9475 24.046 13.9988 24.0974 14.0575C24.1524 14.1125 24.2037 14.1767 24.2514 14.25L26.4294 17H25.5549C25.4705 17 25.3972 16.9872 25.3349 16.9615C25.2762 16.9322 25.2249 16.8808 25.1809 16.8075L23.3494 14.525C23.2944 14.448 23.2394 14.3985 23.1844 14.3765C23.133 14.3508 23.0524 14.338 22.9424 14.338H22.6619V17H21.6774V8.8985H22.6619ZM32.0703 11.4285L28.9628 18.6445C28.9298 18.7178 28.8876 18.7765 28.8363 18.8205C28.7886 18.8645 28.7135 18.8865 28.6108 18.8865H27.8848L28.9023 16.6755L26.6033 11.4285H27.4503C27.5346 11.4285 27.6006 11.4505 27.6483 11.4945C27.6996 11.5348 27.7345 11.5807 27.7528 11.632L29.2433 15.141C29.302 15.295 29.3515 15.4563 29.3918 15.625C29.4431 15.4527 29.4981 15.2895 29.5568 15.1355L31.0033 11.632C31.0253 11.5733 31.062 11.5257 31.1133 11.489C31.1683 11.4487 31.2288 11.4285 31.2948 11.4285H32.0703ZM37.5167 11.4285V17H36.9337C36.7943 17 36.7063 16.9322 36.6697 16.7965L36.5927 16.197C36.3507 16.4647 36.0793 16.681 35.7787 16.846C35.478 17.0073 35.1333 17.088 34.7447 17.088C34.4403 17.088 34.1708 17.0385 33.9362 16.9395C33.7052 16.8368 33.5108 16.6938 33.3532 16.5105C33.1955 16.3272 33.0763 16.1053 32.9957 15.845C32.9187 15.5847 32.8802 15.2968 32.8802 14.9815V11.4285H33.8592V14.9815C33.8592 15.4032 33.9545 15.7295 34.1452 15.9605C34.3395 16.1915 34.6347 16.307 35.0307 16.307C35.3203 16.307 35.5898 16.2392 35.8392 16.1035C36.0922 15.9642 36.325 15.7735 36.5377 15.5315V11.4285H37.5167Z" fill="#3C7EBB"/>
</svg>
