<svg width="50" height="26" viewBox="0 0 50 26" fill="none" xmlns="http://www.w3.org/2000/svg">
<path d="M9 1H8.42937L8.13907 1.49127L1.63907 12.4913L1.33846 13L1.63907 13.5087L8.13907 24.5087L8.42937 25H9H41H41.5706L41.8609 24.5087L48.3609 13.5087L48.6615 13L48.3609 12.4913L41.8609 1.49127L41.5706 1H41H9Z" fill="#181919" stroke="#ECB613" stroke-width="2"/>
<path d="M13.6975 12.094C14.1082 12.006 14.4859 11.962 14.8305 11.962C15.2412 11.962 15.6042 12.0225 15.9195 12.1435C16.2349 12.2645 16.497 12.4313 16.706 12.644C16.9187 12.8567 17.0782 13.1078 17.1845 13.3975C17.2945 13.6872 17.3495 14.0025 17.3495 14.3435C17.3495 14.7615 17.2762 15.1392 17.1295 15.4765C16.9865 15.8138 16.7867 16.1035 16.53 16.3455C16.277 16.5838 15.9782 16.7672 15.6335 16.8955C15.2889 17.0238 14.9167 17.088 14.517 17.088C14.286 17.088 14.0642 17.0642 13.8515 17.0165C13.6389 16.9725 13.439 16.912 13.252 16.835C13.0687 16.758 12.8982 16.67 12.7405 16.571C12.5829 16.472 12.4435 16.3675 12.3225 16.2575L12.625 15.8395C12.691 15.7442 12.7772 15.6965 12.8835 15.6965C12.9569 15.6965 13.0394 15.7258 13.131 15.7845C13.2227 15.8395 13.3345 15.9018 13.4665 15.9715C13.5985 16.0412 13.7525 16.1053 13.9285 16.164C14.1082 16.219 14.3209 16.2465 14.5665 16.2465C14.8415 16.2465 15.089 16.2025 15.309 16.1145C15.529 16.0265 15.7179 15.9018 15.8755 15.7405C16.0332 15.5755 16.1542 15.3793 16.2385 15.152C16.3229 14.9247 16.365 14.6698 16.365 14.3875C16.365 14.1418 16.3284 13.92 16.255 13.722C16.1854 13.524 16.0772 13.3553 15.9305 13.216C15.7875 13.0767 15.6079 12.9685 15.3915 12.8915C15.1752 12.8145 14.9222 12.776 14.6325 12.776C14.4345 12.776 14.2274 12.7925 14.011 12.8255C13.7984 12.8585 13.5802 12.9117 13.3565 12.985L12.7405 12.8035L13.373 9.1185H17.1075V9.5475C17.1075 9.68683 17.0635 9.80233 16.9755 9.894C16.8912 9.982 16.7445 10.026 16.5355 10.026H14.0605L13.6975 12.094ZM22.6619 8.8985V13.667H22.9149C22.9882 13.667 23.0487 13.6578 23.0964 13.6395C23.1477 13.6175 23.2009 13.5753 23.2559 13.513L25.0159 11.6265C25.0672 11.5642 25.1204 11.5165 25.1754 11.4835C25.234 11.4468 25.311 11.4285 25.4064 11.4285H26.2919L24.2404 13.612C24.1414 13.7367 24.035 13.8338 23.9214 13.9035C23.9874 13.9475 24.046 13.9988 24.0974 14.0575C24.1524 14.1125 24.2037 14.1767 24.2514 14.25L26.4294 17H25.5549C25.4705 17 25.3972 16.9872 25.3349 16.9615C25.2762 16.9322 25.2249 16.8808 25.1809 16.8075L23.3494 14.525C23.2944 14.448 23.2394 14.3985 23.1844 14.3765C23.133 14.3508 23.0524 14.338 22.9424 14.338H22.6619V17H21.6774V8.8985H22.6619ZM32.0703 11.4285L28.9628 18.6445C28.9298 18.7178 28.8876 18.7765 28.8363 18.8205C28.7886 18.8645 28.7135 18.8865 28.6108 18.8865H27.8848L28.9023 16.6755L26.6033 11.4285H27.4503C27.5346 11.4285 27.6006 11.4505 27.6483 11.4945C27.6996 11.5348 27.7345 11.5807 27.7528 11.632L29.2433 15.141C29.302 15.295 29.3515 15.4563 29.3918 15.625C29.4431 15.4527 29.4981 15.2895 29.5568 15.1355L31.0033 11.632C31.0253 11.5733 31.062 11.5257 31.1133 11.489C31.1683 11.4487 31.2288 11.4285 31.2948 11.4285H32.0703ZM37.5167 11.4285V17H36.9337C36.7943 17 36.7063 16.9322 36.6697 16.7965L36.5927 16.197C36.3507 16.4647 36.0793 16.681 35.7787 16.846C35.478 17.0073 35.1333 17.088 34.7447 17.088C34.4403 17.088 34.1708 17.0385 33.9362 16.9395C33.7052 16.8368 33.5108 16.6938 33.3532 16.5105C33.1955 16.3272 33.0763 16.1053 32.9957 15.845C32.9187 15.5847 32.8802 15.2968 32.8802 14.9815V11.4285H33.8592V14.9815C33.8592 15.4032 33.9545 15.7295 34.1452 15.9605C34.3395 16.1915 34.6347 16.307 35.0307 16.307C35.3203 16.307 35.5898 16.2392 35.8392 16.1035C36.0922 15.9642 36.325 15.7735 36.5377 15.5315V11.4285H37.5167Z" fill="#ECB613"/>
</svg>
