<svg width="50" height="26" viewBox="0 0 50 26" fill="none" xmlns="http://www.w3.org/2000/svg">
<path d="M9 1H8.42937L8.13907 1.49127L1.63907 12.4913L1.33846 13L1.63907 13.5087L8.13907 24.5087L8.42937 25H9H41H41.5706L41.8609 24.5087L48.3609 13.5087L48.6615 13L48.3609 12.4913L41.8609 1.49127L41.5706 1H41H9Z" fill="#181919" stroke="#ECB613" stroke-width="2"/>
<path d="M14.8855 16.274C15.1495 16.274 15.3879 16.2318 15.6005 16.1475C15.8169 16.0632 16.0002 15.9458 16.1505 15.7955C16.3045 15.6452 16.4219 15.4673 16.5025 15.262C16.5869 15.0567 16.629 14.833 16.629 14.591C16.629 14.3343 16.5887 14.1033 16.508 13.898C16.4274 13.689 16.3119 13.513 16.1615 13.37C16.0149 13.2233 15.8389 13.1115 15.6335 13.0345C15.4282 12.9575 15.2027 12.919 14.957 12.919C14.693 12.919 14.4547 12.9648 14.242 13.0565C14.0294 13.1445 13.8479 13.2655 13.6975 13.4195C13.5509 13.5698 13.4372 13.7458 13.3565 13.9475C13.2795 14.1455 13.241 14.3527 13.241 14.569C13.241 14.822 13.2777 15.053 13.351 15.262C13.4244 15.471 13.5307 15.6507 13.67 15.801C13.813 15.9513 13.9854 16.0687 14.187 16.153C14.3924 16.2337 14.6252 16.274 14.8855 16.274ZM14.3135 12.072C14.2439 12.16 14.176 12.2462 14.11 12.3305C14.0477 12.4112 13.9872 12.4918 13.9285 12.5725C14.1155 12.4442 14.3209 12.3452 14.5445 12.2755C14.7682 12.2058 15.012 12.171 15.276 12.171C15.595 12.171 15.8957 12.2242 16.178 12.3305C16.4604 12.4332 16.706 12.5853 16.915 12.787C17.1277 12.985 17.2964 13.2307 17.421 13.524C17.5457 13.8137 17.608 14.1455 17.608 14.5195C17.608 14.8825 17.542 15.2198 17.41 15.5315C17.278 15.8432 17.0929 16.1145 16.8545 16.3455C16.6199 16.5765 16.3357 16.758 16.002 16.89C15.672 17.022 15.3072 17.088 14.9075 17.088C14.5115 17.088 14.1522 17.0257 13.8295 16.901C13.5069 16.7727 13.2319 16.593 13.0045 16.362C12.7809 16.1273 12.6067 15.845 12.482 15.515C12.361 15.1813 12.3005 14.8092 12.3005 14.3985C12.3005 14.0538 12.3757 13.6872 12.526 13.2985C12.68 12.9062 12.9239 12.4882 13.2575 12.0445L15.2595 9.355C15.3109 9.289 15.3805 9.234 15.4685 9.19C15.5602 9.14233 15.6647 9.1185 15.782 9.1185H16.651L14.3135 12.072ZM22.6619 8.8985V13.667H22.9149C22.9882 13.667 23.0487 13.6578 23.0964 13.6395C23.1477 13.6175 23.2009 13.5753 23.2559 13.513L25.0159 11.6265C25.0672 11.5642 25.1204 11.5165 25.1754 11.4835C25.234 11.4468 25.311 11.4285 25.4064 11.4285H26.2919L24.2404 13.612C24.1414 13.7367 24.035 13.8338 23.9214 13.9035C23.9874 13.9475 24.046 13.9988 24.0974 14.0575C24.1524 14.1125 24.2037 14.1767 24.2514 14.25L26.4294 17H25.5549C25.4705 17 25.3972 16.9872 25.3349 16.9615C25.2762 16.9322 25.2249 16.8808 25.1809 16.8075L23.3494 14.525C23.2944 14.448 23.2394 14.3985 23.1844 14.3765C23.133 14.3508 23.0524 14.338 22.9424 14.338H22.6619V17H21.6774V8.8985H22.6619ZM32.0703 11.4285L28.9628 18.6445C28.9298 18.7178 28.8876 18.7765 28.8363 18.8205C28.7886 18.8645 28.7135 18.8865 28.6108 18.8865H27.8848L28.9023 16.6755L26.6033 11.4285H27.4503C27.5346 11.4285 27.6006 11.4505 27.6483 11.4945C27.6996 11.5348 27.7345 11.5807 27.7528 11.632L29.2433 15.141C29.302 15.295 29.3515 15.4563 29.3918 15.625C29.4431 15.4527 29.4981 15.2895 29.5568 15.1355L31.0033 11.632C31.0253 11.5733 31.062 11.5257 31.1133 11.489C31.1683 11.4487 31.2288 11.4285 31.2948 11.4285H32.0703ZM37.5167 11.4285V17H36.9337C36.7943 17 36.7063 16.9322 36.6697 16.7965L36.5927 16.197C36.3507 16.4647 36.0793 16.681 35.7787 16.846C35.478 17.0073 35.1333 17.088 34.7447 17.088C34.4403 17.088 34.1708 17.0385 33.9362 16.9395C33.7052 16.8368 33.5108 16.6938 33.3532 16.5105C33.1955 16.3272 33.0763 16.1053 32.9957 15.845C32.9187 15.5847 32.8802 15.2968 32.8802 14.9815V11.4285H33.8592V14.9815C33.8592 15.4032 33.9545 15.7295 34.1452 15.9605C34.3395 16.1915 34.6347 16.307 35.0307 16.307C35.3203 16.307 35.5898 16.2392 35.8392 16.1035C36.0922 15.9642 36.325 15.7735 36.5377 15.5315V11.4285H37.5167Z" fill="#ECB613"/>
</svg>
