<svg width="50" height="26" viewBox="0 0 50 26" fill="none" xmlns="http://www.w3.org/2000/svg">
<path d="M9 1H8.42937L8.13907 1.49127L1.63907 12.4913L1.33846 13L1.63907 13.5087L8.13907 24.5087L8.42937 25H9H41H41.5706L41.8609 24.5087L48.3609 13.5087L48.6615 13L48.3609 12.4913L41.8609 1.49127L41.5706 1H41H9Z" fill="#181919" stroke="white" stroke-width="2"/>
<path d="M14.8965 16.307C15.1532 16.307 15.3824 16.2722 15.584 16.2025C15.7894 16.1292 15.9617 16.0283 16.101 15.9C16.244 15.768 16.3522 15.6122 16.4255 15.4325C16.5025 15.2492 16.541 15.0475 16.541 14.8275C16.541 14.5562 16.4952 14.3252 16.4035 14.1345C16.3155 13.9402 16.1945 13.7825 16.0405 13.6615C15.8902 13.5405 15.716 13.4525 15.518 13.3975C15.32 13.3388 15.1129 13.3095 14.8965 13.3095C14.6802 13.3095 14.473 13.3388 14.275 13.3975C14.077 13.4525 13.901 13.5405 13.747 13.6615C13.5967 13.7825 13.4757 13.9402 13.384 14.1345C13.296 14.3252 13.252 14.5562 13.252 14.8275C13.252 15.0475 13.2887 15.2492 13.362 15.4325C13.439 15.6122 13.5472 15.768 13.6865 15.9C13.8295 16.0283 14.0019 16.1292 14.2035 16.2025C14.4089 16.2722 14.6399 16.307 14.8965 16.307ZM14.8965 9.7895C14.6619 9.7895 14.4547 9.82433 14.275 9.894C14.099 9.96367 13.9505 10.059 13.8295 10.18C13.7122 10.301 13.6224 10.4422 13.56 10.6035C13.5014 10.7648 13.472 10.9372 13.472 11.1205C13.472 11.3002 13.4977 11.4743 13.549 11.643C13.6004 11.8117 13.6829 11.962 13.7965 12.094C13.9102 12.2223 14.0569 12.3268 14.2365 12.4075C14.4199 12.4845 14.6399 12.523 14.8965 12.523C15.1532 12.523 15.3714 12.4845 15.551 12.4075C15.7344 12.3268 15.8829 12.2223 15.9965 12.094C16.1102 11.962 16.1927 11.8117 16.244 11.643C16.2954 11.4743 16.321 11.3002 16.321 11.1205C16.321 10.9372 16.2899 10.7648 16.2275 10.6035C16.1689 10.4422 16.079 10.301 15.958 10.18C15.8407 10.059 15.6922 9.96367 15.5125 9.894C15.3365 9.82433 15.1312 9.7895 14.8965 9.7895ZM16.024 12.8915C16.5154 13.0308 16.893 13.2637 17.157 13.59C17.421 13.9163 17.553 14.3343 17.553 14.844C17.553 15.1887 17.487 15.5003 17.355 15.779C17.2267 16.054 17.0452 16.2887 16.8105 16.483C16.5795 16.6773 16.3009 16.8277 15.9745 16.934C15.6482 17.0367 15.2889 17.088 14.8965 17.088C14.5042 17.088 14.1449 17.0367 13.8185 16.934C13.4922 16.8277 13.2117 16.6773 12.977 16.483C12.7424 16.2887 12.5609 16.054 12.4325 15.779C12.3042 15.5003 12.24 15.1887 12.24 14.844C12.24 14.3343 12.372 13.9163 12.636 13.59C12.9 13.2637 13.2777 13.0308 13.769 12.8915C13.3547 12.7375 13.0412 12.5083 12.8285 12.204C12.6195 11.896 12.515 11.5293 12.515 11.104C12.515 10.8143 12.5719 10.543 12.6855 10.29C12.7992 10.037 12.9605 9.817 13.1695 9.63C13.3785 9.443 13.6279 9.29633 13.9175 9.19C14.2109 9.08367 14.5372 9.0305 14.8965 9.0305C15.2522 9.0305 15.5767 9.08367 15.87 9.19C16.1634 9.29633 16.4145 9.443 16.6235 9.63C16.8325 9.817 16.9939 10.037 17.1075 10.29C17.2212 10.543 17.278 10.8143 17.278 11.104C17.278 11.5293 17.1717 11.896 16.959 12.204C16.75 12.5083 16.4384 12.7375 16.024 12.8915ZM22.6619 8.8985V13.667H22.9149C22.9882 13.667 23.0487 13.6578 23.0964 13.6395C23.1477 13.6175 23.2009 13.5753 23.2559 13.513L25.0159 11.6265C25.0672 11.5642 25.1204 11.5165 25.1754 11.4835C25.234 11.4468 25.311 11.4285 25.4064 11.4285H26.2919L24.2404 13.612C24.1414 13.7367 24.035 13.8338 23.9214 13.9035C23.9874 13.9475 24.046 13.9988 24.0974 14.0575C24.1524 14.1125 24.2037 14.1767 24.2514 14.25L26.4294 17H25.5549C25.4705 17 25.3972 16.9872 25.3349 16.9615C25.2762 16.9322 25.2249 16.8808 25.1809 16.8075L23.3494 14.525C23.2944 14.448 23.2394 14.3985 23.1844 14.3765C23.133 14.3508 23.0524 14.338 22.9424 14.338H22.6619V17H21.6774V8.8985H22.6619ZM32.0703 11.4285L28.9628 18.6445C28.9298 18.7178 28.8876 18.7765 28.8363 18.8205C28.7886 18.8645 28.7135 18.8865 28.6108 18.8865H27.8848L28.9023 16.6755L26.6033 11.4285H27.4503C27.5346 11.4285 27.6006 11.4505 27.6483 11.4945C27.6996 11.5348 27.7345 11.5807 27.7528 11.632L29.2433 15.141C29.302 15.295 29.3515 15.4563 29.3918 15.625C29.4431 15.4527 29.4981 15.2895 29.5568 15.1355L31.0033 11.632C31.0253 11.5733 31.062 11.5257 31.1133 11.489C31.1683 11.4487 31.2288 11.4285 31.2948 11.4285H32.0703ZM37.5167 11.4285V17H36.9337C36.7943 17 36.7063 16.9322 36.6697 16.7965L36.5927 16.197C36.3507 16.4647 36.0793 16.681 35.7787 16.846C35.478 17.0073 35.1333 17.088 34.7447 17.088C34.4403 17.088 34.1708 17.0385 33.9362 16.9395C33.7052 16.8368 33.5108 16.6938 33.3532 16.5105C33.1955 16.3272 33.0763 16.1053 32.9957 15.845C32.9187 15.5847 32.8802 15.2968 32.8802 14.9815V11.4285H33.8592V14.9815C33.8592 15.4032 33.9545 15.7295 34.1452 15.9605C34.3395 16.1915 34.6347 16.307 35.0307 16.307C35.3203 16.307 35.5898 16.2392 35.8392 16.1035C36.0922 15.9642 36.325 15.7735 36.5377 15.5315V11.4285H37.5167Z" fill="white"/>
</svg>
